<svg width="72" height="29" viewBox="0 0 72 29" fill="none" xmlns="http://www.w3.org/2000/svg">
<path d="M12.6 5.408C12.968 5.408 13.24 5.424 13.416 5.456C13.608 5.472 13.816 5.544 14.04 5.672C14.28 5.8 14.448 6.016 14.544 6.32C14.64 6.624 14.688 7.032 14.688 7.544C14.688 8.056 14.64 8.464 14.544 8.768C14.448 9.072 14.28 9.288 14.04 9.416C13.8 9.528 13.584 9.6 13.392 9.632C13.216 9.648 12.936 9.656 12.552 9.656H5.208V12.08H9.936C10.32 12.08 10.6 12.096 10.776 12.128C10.968 12.144 11.184 12.216 11.424 12.344C11.84 12.584 12.048 13.216 12.048 14.24C12.048 15.36 11.744 16.024 11.136 16.232C10.88 16.312 10.472 16.352 9.912 16.352H5.208V20.888C5.208 21.272 5.192 21.552 5.16 21.728C5.144 21.904 5.072 22.112 4.944 22.352C4.72 22.784 4.096 23 3.072 23C1.952 23 1.296 22.696 1.104 22.088C1.008 21.832 0.96 21.424 0.96 20.864V7.52C0.96 6.704 1.112 6.152 1.416 5.864C1.72 5.56 2.296 5.408 3.144 5.408H12.6ZM16.2413 6.512C16.2413 6.144 16.2493 5.872 16.2653 5.696C16.2973 5.504 16.3693 5.288 16.4813 5.048C16.7053 4.616 17.3293 4.4 18.3533 4.4C19.3293 4.4 19.9373 4.616 20.1773 5.048C20.3053 5.288 20.3773 5.504 20.3933 5.696C20.4253 5.888 20.4413 6.168 20.4413 6.536V17.648C20.4413 18.224 20.4893 18.592 20.5853 18.752C20.6813 18.896 20.8893 18.968 21.2093 18.968C21.5453 18.968 21.7693 18.984 21.8813 19.016C21.9933 19.032 22.1293 19.096 22.2893 19.208C22.6093 19.416 22.7693 19.984 22.7693 20.912C22.7693 21.92 22.6093 22.536 22.2893 22.76C21.8733 23.048 20.8813 23.096 19.3133 22.904C18.0813 22.744 17.2813 22.336 16.9133 21.68C16.4653 20.896 16.2413 19.648 16.2413 17.936V6.512ZM29.4744 22.952C27.8584 22.952 26.5144 22.344 25.4424 21.128C24.3864 19.896 23.8584 18.4 23.8584 16.64V12.44C23.8584 12.056 23.8664 11.776 23.8824 11.6C23.9144 11.424 23.9864 11.216 24.0984 10.976C24.3224 10.544 24.9464 10.328 25.9704 10.328C27.0904 10.328 27.7464 10.632 27.9384 11.24C28.0344 11.496 28.0824 11.904 28.0824 12.464V16.664C28.0824 17.32 28.2664 17.832 28.6344 18.2C29.0184 18.568 29.5224 18.752 30.1464 18.752C30.7864 18.752 31.2984 18.56 31.6824 18.176C32.0824 17.792 32.2824 17.288 32.2824 16.664V12.416C32.2824 12.048 32.2904 11.776 32.3064 11.6C32.3384 11.408 32.4184 11.192 32.5464 10.952C32.7544 10.536 33.3704 10.328 34.3944 10.328C35.4024 10.328 36.0184 10.544 36.2424 10.976C36.3544 11.216 36.4184 11.432 36.4344 11.624C36.4664 11.8 36.4824 12.072 36.4824 12.44V20.936C36.4824 21.288 36.4664 21.56 36.4344 21.752C36.4184 21.928 36.3464 22.128 36.2184 22.352C35.9784 22.768 35.3624 22.976 34.3704 22.976C33.3944 22.976 32.7944 22.784 32.5704 22.4C32.4104 22.128 32.3304 21.8 32.3304 21.416C32.2664 21.528 32.1224 21.688 31.8984 21.896C31.6744 22.104 31.4584 22.28 31.2504 22.424C30.7064 22.776 30.1144 22.952 29.4744 22.952ZM54.2771 10.352C55.3811 10.352 56.0291 10.656 56.2211 11.264C56.3171 11.568 56.3651 11.968 56.3651 12.464C56.3651 12.96 56.3091 13.36 56.1971 13.664C56.1011 13.952 55.9411 14.16 55.7171 14.288C55.3811 14.48 54.8931 14.576 54.2531 14.576L52.7171 14.48V20.912C52.7171 21.52 52.6371 21.976 52.4771 22.28C52.3331 22.568 52.1011 22.76 51.7811 22.856C51.4771 22.952 51.0771 23 50.5811 23C50.0851 23 49.6851 22.952 49.3811 22.856C49.0931 22.744 48.8851 22.576 48.7571 22.352C48.6291 22.112 48.5491 21.896 48.5171 21.704C48.5011 21.512 48.4931 21.232 48.4931 20.864V14.504C47.7251 14.552 47.0931 14.576 46.5971 14.576L44.2451 14.48V20.912C44.2451 21.52 44.1651 21.976 44.0051 22.28C43.8611 22.568 43.6291 22.76 43.3091 22.856C43.0051 22.952 42.6051 23 42.1091 23C41.6131 23 41.2131 22.952 40.9091 22.856C40.6211 22.744 40.4131 22.576 40.2851 22.352C40.1571 22.112 40.0771 21.896 40.0451 21.704C40.0291 21.512 40.0211 21.232 40.0211 20.864V14.504C39.7171 14.552 39.3891 14.576 39.0371 14.576C38.6851 14.576 38.3891 14.44 38.1491 14.168C37.9251 13.896 37.8131 13.432 37.8131 12.776C37.8131 12.12 37.8531 11.648 37.9331 11.36C38.0131 11.056 38.1251 10.84 38.2691 10.712C38.5251 10.504 38.8451 10.4 39.2291 10.4L40.0211 10.496V9.224C40.0211 7.992 40.4611 6.88 41.3411 5.888C42.2211 4.88 43.4931 4.376 45.1571 4.376C45.5251 4.376 45.7971 4.392 45.9731 4.424C46.1651 4.44 46.3811 4.504 46.6211 4.616C47.0531 4.84 47.2691 5.464 47.2691 6.488C47.2691 7.256 47.1331 7.8 46.8611 8.12C46.6371 8.392 46.2851 8.536 45.8051 8.552C45.6611 8.568 45.4371 8.576 45.1331 8.576C44.5411 8.576 44.2451 8.776 44.2451 9.176V10.496C45.1091 10.432 45.8531 10.4 46.4771 10.4L48.4931 10.496V9.224C48.4931 7.992 48.9331 6.88 49.8131 5.888C50.6931 4.88 51.9651 4.376 53.6291 4.376C54.0131 4.376 54.2931 4.392 54.4691 4.424C54.6451 4.44 54.8531 4.504 55.0931 4.616C55.5251 4.84 55.7411 5.464 55.7411 6.488C55.7411 7.256 55.6051 7.8 55.3331 8.12C55.1091 8.392 54.7651 8.536 54.3011 8.552C54.1411 8.568 53.9091 8.576 53.6051 8.576C53.0131 8.576 52.7171 8.776 52.7171 9.176V10.496L54.2771 10.352ZM69.4388 10.496C70.3828 10.912 70.8548 11.416 70.8548 12.008C70.8548 12.296 70.7908 12.568 70.6628 12.824C70.5348 13.08 70.4708 13.216 70.4708 13.232L64.1828 27.296C64.0548 27.6 63.9428 27.832 63.8468 27.992C63.7668 28.152 63.6308 28.304 63.4388 28.448C63.2468 28.592 63.0068 28.664 62.7188 28.664C62.4308 28.664 62.0068 28.544 61.4468 28.304C60.5028 27.888 60.0308 27.392 60.0308 26.816C60.0308 26.432 60.7988 24.6 62.3348 21.32L57.5588 13.28C57.2388 12.752 57.0788 12.36 57.0788 12.104C57.0788 11.592 57.5108 11.08 58.3748 10.568C58.9188 10.248 59.3428 10.088 59.6468 10.088C59.9508 10.088 60.1988 10.152 60.3908 10.28C60.5828 10.408 60.7188 10.544 60.7988 10.688C60.8948 10.816 61.3348 11.56 62.1188 12.92C62.9188 14.264 63.6788 15.52 64.3988 16.688C64.4788 16.432 64.9108 15.448 65.6948 13.736C66.4788 12.008 66.8948 11.088 66.9428 10.976C67.0068 10.864 67.1028 10.728 67.2308 10.568C67.4388 10.296 67.7268 10.16 68.0948 10.16C68.4788 10.16 68.9268 10.272 69.4388 10.496Z" fill="#506EFA"/>
<circle cx="64" cy="4" r="4" fill="#506EFA"/>
</svg>
