<svg width="254" height="219" viewBox="0 0 254 219" fill="none" xmlns="http://www.w3.org/2000/svg">
<g clip-path="url(#clip0)">
<path d="M229.171 38.8373L209.733 43.3299L224.591 33.6571C218.715 27.4258 212.123 21.9141 204.951 17.2373L163.238 26.8783L190.327 9.24336C178.485 3.92216 165.777 0.8 152.821 0.0289995L133.17 4.57096L140.191 0C112.237 1.5484 85.9892 13.9634 67.0364 34.6022L248.824 74.6076C244.61 61.5381 237.939 49.3965 229.171 38.8373Z" fill="#F2F2F2"/>
<path d="M252.644 90.5935L41.0635 84.2973C40.5095 86.7929 40.0445 89.322 39.6687 91.8846C37.9528 103.568 38.1446 115.453 40.2366 127.074C40.799 130.192 41.4932 133.259 42.3192 136.276C47.2586 154.308 56.7907 170.746 69.9814 183.979C83.172 197.211 99.5688 206.785 117.565 211.761C135.561 216.738 154.54 216.946 172.641 212.367C190.742 207.787 207.344 198.576 220.822 185.637C223.575 182.991 226.188 180.203 228.648 177.283C238.627 165.406 245.936 151.515 250.077 136.557C254.217 121.598 255.093 105.921 252.644 90.5935Z" fill="#F2F2F2"/>
<path d="M150.988 219C191.581 219 224.489 214.131 224.489 208.125C224.489 202.119 191.581 197.25 150.988 197.25C110.395 197.25 77.4879 202.119 77.4879 208.125C77.4879 214.131 110.395 219 150.988 219Z" fill="#3F3D56"/>
<path d="M148.806 37.4404C144.903 30.8359 137.182 30.5281 137.182 30.5281C137.182 30.5281 129.659 29.5645 124.832 39.6232C120.333 48.9987 114.125 58.0509 123.833 60.2457L125.586 54.7796L126.672 60.6526C128.054 60.7522 129.441 60.7759 130.826 60.7237C141.222 60.3875 151.123 60.8221 150.804 57.0857C150.38 52.1187 152.561 43.7952 148.806 37.4404Z" fill="#2F2E41"/>
<path d="M160.551 72.326V89.1696L162.745 119.195C162.745 119.195 165.67 132.377 158.358 131.645C151.046 130.912 158.358 115.167 158.358 115.167L153.24 92.099L154.702 76.3539L160.551 72.326Z" fill="#A0616A"/>
<path d="M124.357 91.0005L126.551 101.985L120.296 122.637C120.296 122.637 110.83 132.743 116.314 136.039C121.798 139.334 123.626 127.617 123.626 127.617L131.669 102.718L128.744 90.2682L124.357 91.0005Z" fill="#A0616A"/>
<path d="M124.723 139.334L129.476 159.473C129.476 159.473 129.841 179.246 134.96 190.597L136.056 193.527L141.54 192.794V176.683C141.54 176.683 141.175 166.43 139.712 161.67C139.712 161.67 140.809 155.446 140.078 149.221C139.627 145.208 139.382 141.175 139.347 137.137L124.723 139.334Z" fill="#A0616A"/>
<path d="M145.196 137.87L151.046 148.855C151.046 148.855 154.702 162.403 158.358 165.332C158.358 165.332 161.648 179.979 165.67 185.471C169.691 190.964 169.691 195.358 169.691 195.358L175.175 193.527C175.175 193.527 172.982 168.261 168.96 161.67C164.939 155.079 162.379 136.039 162.379 136.039L145.196 137.87Z" fill="#A0616A"/>
<path d="M136.422 55.4825C141.874 55.4825 146.293 51.0562 146.293 45.596C146.293 40.1359 141.874 35.7096 136.422 35.7096C130.97 35.7096 126.551 40.1359 126.551 45.596C126.551 51.0562 130.97 55.4825 136.422 55.4825Z" fill="#A0616A"/>
<path d="M131.669 51.0885C131.669 51.0885 135.691 62.8058 130.938 66.1013C126.185 69.3968 138.616 71.5938 141.906 69.3968C145.196 67.1998 147.755 63.5381 147.755 63.5381C147.755 63.5381 139.347 55.1164 141.175 50.3562L131.669 51.0885Z" fill="#A0616A"/>
<path d="M155.067 81.114C155.067 81.114 157.261 87.705 155.433 90.6343C154.478 92.1698 153.613 93.7591 152.841 95.3945C152.622 95.8595 152.508 96.1268 152.508 96.1268L127.648 96.8591L124.357 68.6644C125.504 67.6424 126.747 66.7337 128.068 65.9511C129.465 65.1602 130.927 64.6622 131.797 65.3067C133.863 66.8336 138.981 66.1013 138.981 66.1013C138.981 66.1013 144.831 62.9156 146.293 61.9453C146.856 61.5718 148.132 61.1763 149.613 60.8981C151.237 60.5677 152.898 60.4581 154.552 60.5722C155.109 60.6109 155.654 60.7472 156.164 60.975C158.358 62.0735 165.67 66.4674 166.035 70.1291C166.401 73.7907 155.067 81.114 155.067 81.114Z" fill="#D0CDE1"/>
<path d="M164.939 138.968L122.895 141.897C122.895 141.897 121.067 140.067 120.336 125.786C119.604 111.506 126.551 98.3238 126.551 98.3238C126.551 98.3238 128.379 94.6621 124.357 93.5636C120.336 92.4651 122.164 69.0306 122.164 69.0306L128.196 65.9182C128.042 66.4381 128.123 65.3543 128.068 65.9511C127.125 75.4202 137.153 93.5636 137.153 93.5636C138.707 83.3 147.116 65.9072 149.613 60.8981C151.237 60.5677 152.898 60.4581 154.552 60.5722C154.318 63.4832 153.868 69.6311 153.605 76.7201C153.24 86.6065 149.584 95.3945 149.584 95.3945H153.605C153.605 95.3945 154.336 101.619 154.336 101.985C154.336 102.352 155.068 106.013 154.336 107.112C153.605 108.21 154.336 107.844 155.433 108.576C156.53 109.309 156.164 109.675 155.799 111.14C155.433 112.604 156.164 112.97 156.53 113.337C156.896 113.703 164.939 138.968 164.939 138.968Z" fill="#2F2E41"/>
<path d="M142.637 191.696L134.96 193.527V195.358C134.96 195.358 122.529 211.835 129.476 213.3C136.422 214.764 138.616 209.638 141.54 209.272C144.465 208.906 145.928 207.075 145.928 205.976C145.928 204.878 142.637 191.696 142.637 191.696Z" fill="#2F2E41"/>
<path d="M175.541 189.865L167.863 191.696V193.527C167.863 193.527 155.433 210.004 162.379 211.469C169.326 212.933 171.519 207.807 174.444 207.441C177.369 207.075 178.831 205.244 178.831 204.145C178.831 203.047 175.541 189.865 175.541 189.865Z" fill="#2F2E41"/>
<path d="M158.724 130.912C160.521 131.093 161.697 130.429 162.453 129.33C160.963 124.696 159.218 119.308 158.084 115.926C156.475 119.869 152.799 130.319 158.724 130.912Z" fill="#A0616A"/>
<path d="M145.984 36.8037L138.356 32.8019L133.57 33.5457C131.874 33.8091 130.297 34.577 129.043 35.7496C127.789 36.9221 126.916 38.4452 126.537 40.1211L125.642 44.0797L131.067 43.8708L132.583 40.3288V43.8124L135.086 43.7159L136.539 38.077L137.447 44.0797L146.347 43.8978L145.984 36.8037Z" fill="#2F2E41"/>
<path d="M195.575 202.973C195.511 202.868 194.004 200.349 193.482 195.117C193.003 190.317 193.311 182.227 197.5 170.942C205.436 149.563 195.671 132.313 195.571 132.141L196.053 131.862C196.078 131.905 198.598 136.303 200.087 143.306C202.054 152.591 201.338 162.245 198.022 171.136C190.099 192.479 195.99 202.582 196.05 202.682L195.575 202.973Z" fill="#3F3D56"/>
<path d="M192.471 130.886C194.47 130.886 196.091 129.263 196.091 127.261C196.091 125.259 194.47 123.636 192.471 123.636C190.472 123.636 188.852 125.259 188.852 127.261C188.852 129.263 190.472 130.886 192.471 130.886Z" fill="#506EFA"/>
<path d="M203.886 144.271C205.885 144.271 207.506 142.648 207.506 140.646C207.506 138.644 205.885 137.021 203.886 137.021C201.887 137.021 200.267 138.644 200.267 140.646C200.267 142.648 201.887 144.271 203.886 144.271Z" fill="#3F3D56"/>
<path d="M196.091 153.193C198.09 153.193 199.71 151.57 199.71 149.568C199.71 147.566 198.09 145.944 196.091 145.944C194.092 145.944 192.471 147.566 192.471 149.568C192.471 151.57 194.092 153.193 196.091 153.193Z" fill="#506EFA"/>
<path d="M205.557 160.722C207.556 160.722 209.176 159.099 209.176 157.097C209.176 155.095 207.556 153.472 205.557 153.472C203.558 153.472 201.937 155.095 201.937 157.097C201.937 159.099 203.558 160.722 205.557 160.722Z" fill="#506EFA"/>
<path d="M193.307 172.433C195.305 172.433 196.926 170.811 196.926 168.809C196.926 166.807 195.305 165.184 193.307 165.184C191.308 165.184 189.687 166.807 189.687 168.809C189.687 170.811 191.308 172.433 193.307 172.433Z" fill="#3F3D56"/>
<path d="M197.761 203.106C197.761 203.106 194.142 194.183 205 187.491L197.761 203.106Z" fill="#3F3D56"/>
<path d="M193.31 202.944C193.31 202.944 191.663 193.455 178.914 193.537L193.31 202.944Z" fill="#3F3D56"/>
<path d="M116.744 70.6512H0V135.609H116.744V70.6512Z" fill="#3F3D56"/>
<path d="M116.573 66.8905H0.170715V72.7025H116.573V66.8905Z" fill="#506EFA"/>
<path d="M30.0393 81.7625H8.87524V96.8054H30.0393V81.7625Z" fill="white"/>
<path d="M107.868 81.7625H49.4966V83.4719H107.868V81.7625Z" fill="white"/>
<path d="M107.868 88.6002H49.4966V90.3096H107.868V88.6002Z" fill="white"/>
<path d="M107.868 95.4379H49.4966V97.1473H107.868V95.4379Z" fill="white"/>
<path d="M107.835 106.906H8.99902V108.767H107.835V106.906Z" fill="white"/>
<path d="M107.835 114.351H8.99902V116.213H107.835V114.351Z" fill="white"/>
<path d="M107.835 121.797H8.99902V123.658H107.835V121.797Z" fill="white"/>
</g>
<defs>
<clipPath id="clip0">
<rect width="254" height="219" fill="white"/>
</clipPath>
</defs>
</svg>
