<svg width="470" height="360" viewBox="0 0 470 360" fill="none" xmlns="http://www.w3.org/2000/svg">
<g clip-path="url(#clip0)">
<path d="M231.314 359.236C297.225 359.236 350.657 352.116 350.657 343.334C350.657 334.551 297.225 327.432 231.314 327.432C165.402 327.432 111.971 334.551 111.971 343.334C111.971 352.116 165.402 359.236 231.314 359.236Z" fill="#3F3D56"/>
<path d="M433.195 207.366L387.059 230.552L427.891 198.131C421.255 187.131 413.8 176.714 405.597 166.978L205.51 219.788L386.245 146.578C377.986 138.84 369.215 131.742 360 125.336L55.114 177.483C22.7429 220.468 5.09645 273.861 5.07153 328.9H464.007C463.988 286.215 453.36 244.292 433.195 207.366Z" fill="#F2F2F2"/>
<path d="M335.047 110.282C303.744 94.0702 269.367 85.6696 234.539 85.7219C163.657 85.7219 100.284 119.851 58.1923 173.476C130.271 156.705 255.766 127.675 335.047 110.282Z" fill="#F2F2F2"/>
<path opacity="0.4" d="M380.184 133.714C383.981 133.714 387.059 130.445 387.059 126.413C387.059 122.381 383.981 119.113 380.184 119.113C376.387 119.113 373.309 122.381 373.309 126.413C373.309 130.445 376.387 133.714 380.184 133.714Z" fill="#506EFA"/>
<path opacity="0.4" d="M367.46 135.021C370.124 135.021 372.283 132.728 372.283 129.9C372.283 127.072 370.124 124.779 367.46 124.779C364.796 124.779 362.637 127.072 362.637 129.9C362.637 132.728 364.796 135.021 367.46 135.021Z" fill="#506EFA"/>
<path opacity="0.4" d="M54.7191 161.048C62.6712 161.048 69.1176 154.203 69.1176 145.759C69.1176 137.315 62.6712 130.469 54.7191 130.469C46.767 130.469 40.3206 137.315 40.3206 145.759C40.3206 154.203 46.767 161.048 54.7191 161.048Z" fill="#506EFA"/>
<path opacity="0.4" d="M28.0711 163.786C33.6494 163.786 38.1715 158.985 38.1715 153.061C38.1715 147.138 33.6494 142.336 28.0711 142.336C22.4927 142.336 17.9706 147.138 17.9706 153.061C17.9706 158.985 22.4927 163.786 28.0711 163.786Z" fill="#506EFA"/>
<path d="M470 328.41H0V329.389H470V328.41Z" fill="#2F2E41"/>
<path d="M416.752 328.41L380.147 270.674C380.147 270.674 435.583 291.224 429.291 328.41H416.752Z" fill="#3F3D56"/>
<path d="M418.189 328.41L454.794 270.674C454.794 270.674 399.358 291.224 405.65 328.41H418.189Z" fill="#506EFA"/>
<path d="M95.8431 64.9636C95.8431 61.7848 91.5745 59.2078 86.3089 59.2078C86.2047 59.2078 86.1016 59.2105 85.9982 59.2125C84.4097 54.042 76.9008 50.1264 67.8761 50.1264C60.1976 50.1264 53.6167 52.9611 50.8455 56.9912C48.798 56.4158 46.6881 56.129 44.5701 56.138C36.4962 56.138 29.951 60.0894 29.951 64.9636C29.951 69.3913 35.3522 73.0568 42.3938 73.6914C47.5106 74.6848 55.5033 75.3241 64.4861 75.3241C79.7365 75.3241 90.8954 72.235 91.1753 69.913C93.9697 68.9095 95.8431 67.069 95.8431 64.9636Z" fill="#F2F2F2"/>
<path d="M326.235 67.4101C326.235 64.2312 321.967 61.6542 316.701 61.6542C316.597 61.6542 316.494 61.657 316.39 61.659C314.802 56.4885 307.293 52.5728 298.268 52.5728C290.59 52.5728 284.009 55.4075 281.238 59.4377C279.19 58.8623 277.08 58.5754 274.962 58.5845C266.888 58.5845 260.343 62.5359 260.343 67.4101C260.343 71.8378 265.744 75.5032 272.786 76.1378C277.903 77.1313 285.895 77.7706 294.878 77.7706C310.129 77.7706 321.288 74.6815 321.567 72.3595C324.362 71.356 326.235 69.5155 326.235 67.4101Z" fill="#F2F2F2"/>
<path d="M454.794 26.043C454.794 20.4633 447.302 15.9401 438.059 15.9401C437.876 15.9401 437.695 15.9449 437.514 15.9484C434.726 6.87291 421.546 0 405.705 0C392.227 0 380.676 4.97549 375.812 12.0494C372.218 11.0395 368.515 10.536 364.797 10.5519C350.626 10.5519 339.137 17.4875 339.137 26.043C339.137 33.8146 348.618 40.2484 360.977 41.3623C369.959 43.106 383.988 44.2281 399.755 44.2281C426.523 44.2281 446.11 38.806 446.601 34.7304C451.506 32.969 454.794 29.7384 454.794 26.043Z" fill="#F2F2F2"/>
<path d="M262.725 141.849C253.194 124.748 234.338 123.951 234.338 123.951C234.338 123.951 215.963 121.456 204.176 147.501C193.189 171.777 178.026 195.216 201.735 200.899L206.017 186.746L208.669 201.953C212.045 202.211 215.431 202.272 218.813 202.137C244.203 201.266 268.383 202.392 267.604 192.717C266.569 179.856 271.896 158.304 262.725 141.849Z" fill="#2F2E41"/>
<path d="M200.381 291.611C200.101 293.492 199.695 295.349 199.165 297.168C198.569 298.949 197.648 300.596 197.102 302.395C195.364 308.13 197.774 314.525 201.623 318.952C204.96 322.775 209.269 325.492 214.028 326.774C217.5 327.701 221.11 327.834 224.688 327.963C234.596 328.32 244.759 328.639 254.148 325.258C257.114 324.163 259.979 322.781 262.707 321.129C263.568 320.693 264.327 320.059 264.927 319.272C265.644 318.19 265.735 316.786 265.729 315.463C265.708 311.003 264.856 306.565 265.058 302.11C265.17 299.643 265.605 297.177 265.391 294.717C265.095 291.923 263.993 289.295 262.236 287.191C260.478 285.088 258.152 283.613 255.575 282.968C252.911 282.361 250.149 282.692 247.438 282.968C240.399 283.687 233.331 284.022 226.26 283.974C219.036 283.925 211.856 282.754 204.667 282.632C202.542 282.596 202.585 283.291 201.908 285.476C201.284 287.487 200.774 289.535 200.381 291.611Z" fill="#2F2E41"/>
<path d="M220.883 181.478C220.536 183.409 220.161 185.409 219.068 186.996C217.811 188.821 215.762 189.864 214.41 191.61C212.375 194.239 212.258 197.939 212.25 201.342C212.242 204.477 212.302 207.821 213.948 210.424C215.017 212.113 216.643 213.297 218.232 214.434C224.407 218.853 231.079 223.351 238.524 223.496C241.608 223.557 244.916 222.711 246.945 220.244C247.821 219.085 248.511 217.779 248.984 216.381C250.888 211.398 252.042 206.129 252.404 200.765C252.573 198.242 252.557 195.645 251.753 193.264C250.848 190.586 249.02 188.383 247.811 185.845C246.382 182.826 245.86 179.415 246.314 176.071C246.374 175.835 246.355 175.585 246.261 175.362C246.162 175.243 246.038 175.15 245.899 175.09C245.76 175.031 245.61 175.006 245.461 175.018L230.699 173.889C229.324 173.817 227.955 173.651 226.601 173.392C225.805 173.22 223.703 172.02 222.944 172.339C221.54 172.93 221.171 179.878 220.883 181.478Z" fill="#FFB8B8"/>
<path opacity="0.1" d="M220.883 181.478C220.536 183.409 220.161 185.409 219.068 186.996C217.811 188.821 215.762 189.864 214.41 191.61C212.375 194.239 212.258 197.939 212.25 201.342C212.242 204.477 212.302 207.821 213.948 210.424C215.017 212.113 216.643 213.297 218.232 214.434C224.407 218.853 231.079 223.351 238.524 223.496C241.608 223.557 244.916 222.711 246.945 220.244C247.821 219.085 248.511 217.779 248.984 216.381C250.888 211.398 252.042 206.129 252.404 200.765C252.573 198.242 252.557 195.645 251.753 193.264C250.848 190.586 249.02 188.383 247.811 185.845C246.382 182.826 245.86 179.415 246.314 176.071C246.374 175.835 246.355 175.585 246.261 175.362C246.162 175.243 246.038 175.15 245.899 175.09C245.76 175.031 245.61 175.006 245.461 175.018L230.699 173.889C229.324 173.817 227.955 173.651 226.601 173.392C225.805 173.22 223.703 172.02 222.944 172.339C221.54 172.93 221.171 179.878 220.883 181.478Z" fill="black"/>
<path d="M235 183.58C246.961 183.58 256.657 173.284 256.657 160.583C256.657 147.883 246.961 137.587 235 137.587C223.039 137.587 213.343 147.883 213.343 160.583C213.343 173.284 223.039 183.58 235 183.58Z" fill="#FFB8B8"/>
<path d="M223.921 212.09C225.049 213.343 226.246 214.584 227.725 215.318C229.23 215.979 230.848 216.306 232.477 216.279C236.381 216.396 240.613 215.636 243.328 212.656C246.829 208.814 246.714 202.618 249.458 198.136C249.679 197.73 249.981 197.379 250.342 197.109C250.802 196.843 251.322 196.716 251.846 196.742C255.311 196.708 258.33 199.094 261.055 201.369C262.275 202.388 263.526 203.443 264.296 204.875C264.835 205.991 265.204 207.191 265.389 208.429C266.741 215.437 267.179 222.603 267.613 229.742C267.853 233.685 268.094 237.632 268.076 241.583C268.017 254.601 265.168 267.401 262.334 280.066C261.969 281.698 261.469 283.523 260.072 284.304C259.449 284.602 258.779 284.775 258.097 284.816C249.981 285.828 241.849 286.841 233.678 286.975C230.489 287.027 227.302 286.945 224.116 286.729C223.568 286.721 223.024 286.621 222.505 286.431C221.802 286.072 221.197 285.527 220.749 284.847C216.33 278.933 216.069 270.757 216.097 263.208C216.166 244.749 216.787 226.305 217.96 207.876C218.057 206.355 218.078 204.508 217.046 203.311C218.905 206.47 221.49 209.392 223.921 212.09Z" fill="#D0CDE1"/>
<path d="M219.333 185.537C218.602 186.943 213.209 190.435 212.168 191.6C206.351 198.11 195.735 197.866 190.415 204.839C188.543 207.293 187.571 210.376 186.855 213.44C185.844 217.775 185.304 222.502 186.998 226.589C188.629 230.522 192.061 233.241 194.392 236.754C196.95 240.611 198.101 245.295 199.203 249.865C200.017 253.24 200.838 256.698 200.521 260.165C200.161 264.108 198.364 267.717 197.303 271.515C196.243 275.312 196.059 279.835 198.512 282.819C200.314 285.011 203.14 285.88 205.841 286.369C209.301 286.921 212.79 287.244 216.288 287.335C219.376 287.48 222.78 287.508 225.154 285.406C227.027 283.747 227.841 281.056 227.947 278.468C228.052 275.881 227.545 273.316 227.228 270.748C226.898 268.086 226.772 265.401 226.666 262.719C226.191 250.683 226.126 238.639 226.472 226.588C226.544 224.08 226.631 221.542 226.127 219.09C225.465 215.867 223.824 212.985 222.455 210.023C219.738 204.144 218.452 198.433 218.873 191.898C219.287 185.448 221.936 180.534 219.333 185.537Z" fill="#506EFA"/>
<path d="M249.745 186.027C250.859 187.243 254.645 187.643 256.062 188.426C257.395 189.08 258.786 189.592 260.215 189.953C265.385 191.537 270.302 193.933 274.803 197.063C275.739 197.644 276.565 198.402 277.243 199.3C278.036 200.472 278.324 201.933 278.592 203.347C279.286 206.997 279.984 210.691 279.828 214.412C279.662 218.36 278.542 222.185 277.431 225.957L273.279 240.054C270.179 250.575 267.06 261.201 266.188 272.186C265.705 278.275 265.92 284.403 266.827 290.436C266.918 291.043 266.995 291.738 266.617 292.204C266.344 292.491 265.984 292.667 265.601 292.701C263.597 293.034 261.657 291.948 259.841 290.988C254.292 288.056 248.369 285.998 242.26 284.88C244.647 281.217 246.489 277.185 247.721 272.926C248.42 270.222 248.971 267.478 249.371 264.706L251.302 252.843C252.088 248.507 252.641 244.127 252.959 239.724C253.105 238.072 253.015 236.406 252.69 234.783C252.245 233.238 251.654 231.745 250.926 230.326C247.743 223.295 246.249 215.271 247.502 207.583C248.05 204.219 249.115 200.85 248.671 197.469C248.244 194.217 248.688 191.691 247.902 188.473C244.676 175.262 247.649 183.739 249.745 186.027Z" fill="#506EFA"/>
<path d="M190.36 215.957C188.908 219.155 186.482 221.879 185.656 225.319C185.335 226.926 185.197 228.569 185.246 230.212C185.227 232.687 185.214 235.213 185.93 237.569C186.391 239.086 187.141 240.485 187.681 241.972C188.434 244.05 188.769 246.272 188.666 248.495C188.52 251.576 187.534 254.566 187.457 257.649C187.336 262.497 189.448 267.055 191.509 271.384C192.028 270.02 192.821 268.793 193.833 267.788C194.845 266.784 196.051 266.026 197.368 265.569C198.684 265.111 200.079 264.964 201.454 265.139C202.83 265.313 204.153 265.805 205.33 266.579C205.874 266.046 205.932 265.171 205.953 264.385C206.106 258.76 206.253 253.135 206.394 247.51C206.617 238.81 206.83 229.993 204.945 221.523C204.094 217.699 202.77 213.89 200.343 210.923C199.065 209.362 194.726 205.248 192.628 206.997C191.684 207.784 191.905 209.926 191.755 211.011C191.529 212.725 191.059 214.393 190.36 215.957Z" fill="#506EFA"/>
<path d="M280.252 206.741C280.938 209.011 280.979 211.436 280.993 213.82C281.021 218.682 280.96 223.545 280.811 228.406C280.735 230.895 280.629 233.418 279.919 235.791C279.45 237.356 278.727 238.823 278.243 240.383C276.792 245.057 277.585 250.127 277.709 255.046C277.797 256.639 277.669 258.236 277.329 259.79C276.564 262.84 274.506 265.304 273.071 268.067C271.707 270.692 270.884 273.634 269.255 276.083C267.627 278.531 264.807 280.471 262.075 279.719C260.004 279.15 258.533 277.204 257.515 275.206C255.294 270.814 254.535 265.754 255.359 260.846C256.381 254.875 259.684 249.578 260.875 243.642C262.511 235.492 260.025 227.08 260.099 218.747C260.065 217.441 260.232 216.137 260.593 214.888C261.218 212.984 262.56 211.464 263.8 209.938C265.349 208.03 266.788 206.024 268.109 203.932C268.997 202.526 270.202 198.911 271.776 198.611C275.289 197.94 279.38 203.859 280.252 206.741Z" fill="#506EFA"/>
<path d="M172.131 287.986C170.188 287.467 168.186 287.241 166.185 287.314C164.081 287.438 162.027 288.035 160.158 289.067C158.288 290.099 156.648 291.542 155.344 293.299C154.041 295.056 153.105 297.088 152.598 299.26C152.092 301.431 152.026 303.692 152.406 305.892C152.891 308.275 153.684 310.576 154.762 312.729C156.339 316.127 158.231 319.518 161.15 321.695C162.858 322.969 164.834 323.764 166.787 324.545L182.163 330.696C184.425 331.6 186.687 332.505 188.972 333.344C200.448 337.557 212.413 340.082 224.534 340.852C228.226 341.085 231.974 341.15 235.575 340.257C236.43 340.046 237.342 339.73 237.837 338.96C238.13 338.418 238.303 337.812 238.342 337.188L239.288 330.155C239.421 329.164 239.549 328.122 239.208 327.19C238.774 326.008 237.688 325.264 236.652 324.632C226.543 318.467 214.741 315.066 206.232 306.605C204.229 304.613 202.553 301.455 200.119 300.102C197.359 298.568 194.109 297.692 191.257 296.278C185.021 293.187 178.89 289.635 172.131 287.986Z" fill="#2F2E41"/>
<path opacity="0.1" d="M187.481 297.468C192.916 299.276 215.861 311.804 219.794 316.178C219.267 316.38 201.381 305.736 200.844 305.565C195.965 304.01 191.06 302.445 186.427 300.17C185.495 299.712 180.372 297.561 180.604 296.312C180.866 294.903 186.516 297.147 187.481 297.468Z" fill="black"/>
<path d="M255.282 344.499C255.591 344.523 255.897 344.428 256.144 344.23C256.252 344.082 256.332 343.913 256.378 343.732C256.424 343.552 256.436 343.363 256.413 343.177C256.405 339.983 256.396 336.789 256.388 333.595C253.793 332.282 250.89 331.862 248.041 331.457L234.749 329.571C235.054 329.614 232.67 335.65 233.036 336.456C233.68 337.876 238.603 339.135 239.993 339.806C244.823 342.137 249.842 344.7 255.282 344.499Z" fill="#FFB8B8"/>
<path d="M213.576 333.562C211.066 333.987 208.265 334.362 206.639 336.436C204.578 339.067 205.456 342.989 206.439 346.249C206.585 346.908 206.878 347.52 207.294 348.034C207.965 348.737 208.993 348.84 209.934 348.903C212.223 349.057 214.659 349.178 216.659 347.985C217.565 347.35 218.437 346.661 219.271 345.924C220.746 344.882 222.367 344.095 224.074 343.592C227.212 342.544 230.442 341.837 233.715 341.482C235.004 341.42 236.281 341.181 237.513 340.771C238.72 340.289 239.837 339.331 240.188 338.014C240.651 336.272 239.698 334.497 238.784 332.97C237.645 331.068 236.439 329.065 234.741 327.664C232.264 325.621 231.039 327.189 228.544 328.497C223.821 330.972 218.776 332.679 213.576 333.562Z" fill="#FFB8B8"/>
<path d="M207.017 335.963L191.08 330.961C189.142 330.353 187.171 329.739 185.15 329.741C183.129 329.742 181.014 330.446 179.703 332.08C178.468 333.62 178.114 335.725 177.806 337.721L177.147 341.992C176.812 344.163 176.476 346.375 176.778 348.551C177.079 350.728 178.125 352.902 179.944 353.955C182.149 355.233 184.852 354.609 187.313 354.074C192.285 352.995 197.342 352.419 202.415 352.355C204.323 352.33 206.324 352.356 208.009 351.407C210.013 350.28 211.212 347.895 211.418 345.497C211.731 341.849 210.586 337.083 207.017 335.963Z" fill="#2F2E41"/>
<path d="M261.547 331.604C263.613 331.22 265.436 329.973 267.416 329.237C270.202 328.201 273.222 328.201 276.174 328.212C277.258 328.217 278.412 328.242 279.314 328.88C280.614 329.8 280.948 331.639 281.169 333.281L282.503 343.189C282.754 345.053 283.003 346.966 282.612 348.803C282.22 350.639 281.042 352.409 279.326 352.882C277.242 353.458 275.199 352.044 273.231 351.115C268.314 348.795 262.597 349.388 257.469 347.653C256.517 347.331 255.498 346.839 255.11 345.862C254.935 345.311 254.872 344.728 254.926 344.15C255.014 340.965 254.382 336.616 255.285 333.572C256.097 330.835 259.241 331.604 261.547 331.604Z" fill="#2F2E41"/>
<path d="M295.272 283.998C298.456 283.15 301.757 282.91 305.021 283.29C307.627 283.595 310.312 284.365 312.215 286.281C314.531 288.612 315.275 292.218 315.337 295.606C315.439 302.354 313.331 308.931 309.374 314.212C308.408 315.548 307.258 316.723 305.965 317.698C304.569 318.625 303.081 319.386 301.529 319.967L267.095 334.389C258.037 338.183 248.946 341.988 239.497 344.49C239.239 344.622 238.958 344.698 238.672 344.714C238.385 344.729 238.099 344.684 237.829 344.58C237.559 344.476 237.312 344.316 237.102 344.109C236.891 343.902 236.722 343.653 236.603 343.375C233.586 338.799 231.055 333.883 229.056 328.716C228.962 328.593 228.896 328.448 228.866 328.293C228.835 328.137 228.84 327.977 228.88 327.824C228.921 327.671 228.995 327.531 229.097 327.415C229.2 327.299 229.326 327.211 229.467 327.159L253.822 312.299C255.567 311.235 257.331 310.155 258.78 308.672C259.832 307.589 260.694 306.315 261.325 304.91C261.829 303.79 261.877 301.148 262.521 300.32C263.153 299.51 265.313 299.445 266.31 299.127C267.717 298.669 269.094 298.116 270.435 297.471C275.883 294.883 280.734 291.123 285.957 288.092C288.886 286.314 292.016 284.938 295.272 283.998Z" fill="#2F2E41"/>
<path opacity="0.1" d="M281.465 295.095C277.281 298.432 271.863 301.499 267.716 304.924C266.3 306.093 242.706 320.179 242.373 322.05C246.242 322.742 270.887 304.434 274.413 302.607C277.94 300.78 281.065 298.204 284.163 295.646C284.952 294.995 288.298 293.035 286.032 292.307C284.755 291.897 282.407 294.427 281.465 295.095Z" fill="black"/>
<path d="M258.512 140.2L239.882 129.839L214.156 134.078L208.833 159.041L222.083 158.5L225.784 149.328V158.348L231.898 158.098L235.447 143.498L237.664 159.041L259.399 158.569L258.512 140.2Z" fill="#2F2E41"/>
<path d="M254.353 191.409H214.265V242.784H254.353V191.409Z" fill="#3F3D56"/>
<path d="M195.234 280.764C196.154 282.223 197.233 283.651 198.711 284.438C199.654 284.895 200.682 285.117 201.718 285.088C202.754 285.058 203.77 284.778 204.689 284.268C206.523 283.223 208.024 281.625 209.003 279.675C211.027 275.879 211.447 271.336 211.194 266.981C210.941 262.626 210.066 258.339 209.678 253.995C209.396 250.838 209.373 247.662 209.351 244.49C209.281 243.823 209.413 243.15 209.727 242.568C210.175 241.918 210.997 241.738 211.724 241.509C215.81 240.22 218.523 236.153 220.467 232.125C221.766 229.435 222.895 226.495 222.644 223.484C222.394 220.473 220.356 217.44 217.524 217.133C215.19 216.88 213.034 218.454 211.35 220.19C207.102 224.595 204.372 230.389 203.599 236.64C203.229 239.701 203.335 242.846 202.551 245.818C200.877 252.163 195.638 256.053 193.028 261.763C190.151 268.055 191.739 275.198 195.234 280.764Z" fill="#FFB8B8"/>
<path d="M272.32 256.522C271.724 257.994 270.857 259.324 269.769 260.433C268.681 261.543 267.395 262.411 265.987 262.984C264.236 263.731 262.305 263.856 260.481 263.342C259.577 263.076 258.742 262.591 258.043 261.927C257.343 261.263 256.798 260.436 256.448 259.511C256.169 258.58 256.016 257.611 255.994 256.634C255.732 252.355 255.833 247.945 257.297 243.949C257.861 242.407 258.622 240.945 259.068 239.361C259.506 237.53 259.73 235.65 259.735 233.761L260.216 222.085C260.296 221.238 260.24 220.382 260.053 219.554C259.573 217.864 258.086 216.767 256.722 215.759C253.427 213.326 250.171 210.487 248.574 206.577C248.026 205.4 247.829 204.073 248.011 202.773C248.461 200.455 250.665 198.954 252.843 198.448C254.267 198.118 255.741 198.096 257.174 198.386C258.606 198.676 259.969 199.271 261.18 200.135C262.39 200.999 263.424 202.114 264.218 203.414C265.011 204.713 265.549 206.17 265.799 207.696C266.014 209.014 266.011 210.359 266.137 211.69C266.405 214.513 267.249 217.233 267.777 220.014C269.077 226.864 268.403 233.945 269.689 240.794C270.764 246.52 274.818 250.256 272.32 256.522Z" fill="#FFB8B8"/>
<path d="M24.2515 327.931L23.3299 327.911C23.6863 317.031 24.7796 306.192 26.6013 295.478C30.5864 272.539 37.2128 257.475 46.2967 250.702L46.8258 251.503C25.6059 267.323 24.2623 327.326 24.2515 327.931Z" fill="#2F2E41"/>
<path d="M35.7711 327.696L34.8495 327.677C34.8693 326.594 35.4453 301.053 44.9143 293.994L45.4435 294.794C36.3565 301.569 35.7756 327.436 35.7711 327.696Z" fill="#2F2E41"/>
<path d="M52.0687 251.592C54.6135 251.592 56.6765 249.401 56.6765 246.699C56.6765 243.996 54.6135 241.806 52.0687 241.806C49.5238 241.806 47.4608 243.996 47.4608 246.699C47.4608 249.401 49.5238 251.592 52.0687 251.592Z" fill="#506EFA"/>
<path d="M49.7867 293.671C52.3316 293.671 54.3946 291.48 54.3946 288.778C54.3946 286.075 52.3316 283.885 49.7867 283.885C47.2419 283.885 45.1789 286.075 45.1789 288.778C45.1789 291.48 47.2419 293.671 49.7867 293.671Z" fill="#506EFA"/>
<path d="M33.6233 254.525C34.4893 260.398 32.2322 265.652 32.2322 265.652C32.2322 265.652 28.5712 261.382 27.7052 255.509C26.8392 249.635 29.0962 244.382 29.0962 244.382C29.0962 244.382 32.7573 248.651 33.6233 254.525Z" fill="#2F2E41"/>
<path d="M48.685 268.789C43.3892 270.718 38.1244 269.274 38.1244 269.274C38.1244 269.274 41.4457 264.702 46.7415 262.773C52.0372 260.844 57.3021 262.288 57.3021 262.288C57.3021 262.288 53.9808 266.861 48.685 268.789Z" fill="#2F2E41"/>
<path d="M48.8551 306.054C46.4583 306.854 43.9058 306.971 41.453 306.394C43.0104 304.288 45.1079 302.706 47.4929 301.837C49.8778 300.969 52.4484 300.851 54.895 301.498C53.2922 303.552 51.2094 305.123 48.8551 306.054Z" fill="#2F2E41"/>
</g>
<defs>
<clipPath id="clip0">
<rect width="470" height="359.236" fill="white"/>
</clipPath>
</defs>
</svg>
